# xmcd
#
# Track frame offsets: 
#        182
#        19417
#        36592
#        51112
#        76300
#        93545
#        112942
#        129685
#        145145
#        162652
#
# Disc length: 2388 seconds
#
# Revision: 6
# Processed by: cddbd v1.5.2PL0 Copyright (c) Steve Scherf et al.
# Submitted via: ExactAudioCopy v1.1
#
DISCID=8b09520a
DTITLE=Toby Keith - Blue Moon
DYEAR=1996
DGENRE=Country
TTITLE0=The Lonely
TTITLE1=Every Night
TTITLE2=Closin' Time At Home
TTITLE3=A Woman's Touch
TTITLE4=Does That Blue Moon Ever Shine On You
TTITLE5=Lucky Me
TTITLE6=She's Perfect
TTITLE7=She's Gonna Get It
TTITLE8=Me Too
TTITLE9=Hello
EXTD=
EXTT0=
EXTT1=
EXTT2=
EXTT3=
EXTT4=
EXTT5=
EXTT6=
EXTT7=
EXTT8=
EXTT9=
PLAYORDER=
